<svg width="43" height="48" viewBox="0 0 43 48" fill="none" xmlns="http://www.w3.org/2000/svg">
<path d="M5.50001 13.625C5.50001 10.144 6.88281 6.80564 9.34423 4.34422C11.8056 1.88281 15.144 0.5 18.625 0.5C22.106 0.5 25.4444 1.88281 27.9058 4.34422C30.3672 6.80564 31.75 10.144 31.75 13.625C31.75 14.0891 31.5656 14.5343 31.2374 14.8624C30.9093 15.1906 30.4641 15.375 30 15.375C29.5359 15.375 29.0908 15.1906 28.7626 14.8624C28.4344 14.5343 28.25 14.0891 28.25 13.625C28.25 11.0723 27.2359 8.62414 25.4309 6.8191C23.6259 5.01406 21.1777 4 18.625 4C16.0723 4 13.6241 5.01406 11.8191 6.8191C10.0141 8.62414 9.00001 11.0723 9.00001 13.625C9.00001 14.0891 8.81563 14.5343 8.48744 14.8624C8.15925 15.1906 7.71414 15.375 7.25001 15.375C6.78588 15.375 6.34076 15.1906 6.01257 14.8624C5.68438 14.5343 5.50001 14.0891 5.50001 13.625ZM36.125 23.25C35.1042 23.2489 34.0993 23.5039 33.2025 23.9916C32.9345 23.1623 32.4926 22.3997 31.9064 21.7549C31.3202 21.11 30.6031 20.5977 29.803 20.2521C29.0029 19.9065 28.1383 19.7356 27.2669 19.7509C26.3956 19.7662 25.5375 19.9672 24.75 20.3406V13.625C24.75 12.0006 24.1047 10.4426 22.956 9.29397C21.8074 8.14531 20.2495 7.5 18.625 7.5C17.0006 7.5 15.4426 8.14531 14.294 9.29397C13.1453 10.4426 12.5 12.0006 12.5 13.625V31.125L11.6644 29.7841C10.8472 28.3798 9.50569 27.3576 7.9349 26.9425C6.3641 26.5273 4.69272 26.7532 3.28844 27.5703C1.88416 28.3875 0.862014 29.729 0.446855 31.2998C0.0316961 32.8706 0.257536 34.542 1.07469 35.9463L7.48844 46.8838C7.59601 47.0968 7.74601 47.2856 7.92922 47.4385C8.11243 47.5914 8.32498 47.7052 8.55381 47.773C8.78263 47.8407 9.02289 47.8609 9.25982 47.8324C9.49675 47.8039 9.72534 47.7272 9.93154 47.607C10.1377 47.4869 10.3172 47.3259 10.4589 47.1338C10.6005 46.9418 10.7014 46.7228 10.7553 46.4903C10.8093 46.2579 10.8151 46.0168 10.7724 45.782C10.7297 45.5472 10.6395 45.3236 10.5072 45.125L4.10001 34.1875C3.92012 33.8887 3.80158 33.5571 3.7513 33.212C3.70102 32.8669 3.72001 32.5152 3.80717 32.1775C3.89432 31.8399 4.04789 31.5229 4.25891 31.2453C4.46992 30.9676 4.73415 30.7348 5.03616 30.5604C5.33817 30.386 5.6719 30.2735 6.01787 30.2295C6.36383 30.1855 6.71509 30.2109 7.05113 30.3042C7.38717 30.3975 7.70124 30.5569 7.97502 30.7729C8.24879 30.9889 8.47676 31.2574 8.64563 31.5625L8.67626 31.6128L12.7625 38.1753C12.9631 38.4991 13.2639 38.7485 13.6191 38.8858C13.9744 39.0231 14.3647 39.0407 14.7309 38.9361C15.0971 38.8314 15.4192 38.6102 15.6482 38.3059C15.8772 38.0016 16.0008 37.6309 16 37.25V13.625C16 12.9288 16.2766 12.2611 16.7689 11.7688C17.2611 11.2766 17.9288 11 18.625 11C19.3212 11 19.9889 11.2766 20.4812 11.7688C20.9734 12.2611 21.25 12.9288 21.25 13.625V28.5C21.25 28.9641 21.4344 29.4093 21.7626 29.7374C22.0908 30.0656 22.5359 30.25 23 30.25C23.4641 30.25 23.9093 30.0656 24.2374 29.7374C24.5656 29.4093 24.75 28.9641 24.75 28.5V25.875C24.75 25.1788 25.0266 24.5111 25.5189 24.0189C26.0111 23.5266 26.6788 23.25 27.375 23.25C28.0712 23.25 28.7389 23.5266 29.2312 24.0189C29.7234 24.5111 30 25.1788 30 25.875V30.25C30 30.7141 30.1844 31.1593 30.5126 31.4874C30.8408 31.8156 31.2859 32 31.75 32C32.2141 32 32.6593 31.8156 32.9874 31.4874C33.3156 31.1593 33.5 30.7141 33.5 30.25V29.375C33.5 28.6788 33.7766 28.0111 34.2689 27.5189C34.7611 27.0266 35.4288 26.75 36.125 26.75C36.8212 26.75 37.4889 27.0266 37.9812 27.5189C38.4734 28.0111 38.75 28.6788 38.75 29.375V37.25C38.75 41.9772 37.1969 45.1906 37.1838 45.2169C36.9764 45.632 36.9425 46.1125 37.0893 46.5526C37.2362 46.9928 37.5518 47.3566 37.9669 47.5641C38.2096 47.6868 38.478 47.7505 38.75 47.75C39.0751 47.7502 39.3939 47.6599 39.6705 47.4891C39.9472 47.3184 40.1708 47.0739 40.3163 46.7831C40.3972 46.6235 42.2522 42.8456 42.2522 37.25V29.375C42.2522 28.5705 42.0937 27.7738 41.7857 27.0306C41.4778 26.2873 41.0264 25.612 40.4575 25.0432C39.8885 24.4744 39.213 24.0233 38.4696 23.7156C37.7262 23.4079 36.9295 23.2497 36.125 23.25Z" fill="#F5F5F5"/>
</svg>
