<svg width="14" height="14" viewBox="0 0 14 14" fill="none" xmlns="http://www.w3.org/2000/svg">
<path d="M5.00001 0.666626V1.99996H9.00001V0.666626H10.3333V1.99996H13C13.3682 1.99996 13.6667 2.29844 13.6667 2.66663V13.3333C13.6667 13.7015 13.3682 14 13 14H1.00001C0.631823 14 0.333344 13.7015 0.333344 13.3333V2.66663C0.333344 2.29844 0.631823 1.99996 1.00001 1.99996H3.66668V0.666626H5.00001ZM12.3333 7.33329H1.66668V12.6666H12.3333V7.33329ZM6.33334 8.66663V11.3333H3.00001V8.66663H6.33334ZM3.66668 3.33329H1.66668V5.99996H12.3333V3.33329H10.3333V4.66663H9.00001V3.33329H5.00001V4.66663H3.66668V3.33329Z" fill="#454545"/>
</svg>
