<svg width="18" height="18" viewBox="0 0 18 18" fill="none" xmlns="http://www.w3.org/2000/svg">
<path d="M6.50002 0.833344V2.50001H11.5V0.833344H13.1667V2.50001H16.5C16.9603 2.50001 17.3334 2.87311 17.3334 3.33334V16.6667C17.3334 17.1269 16.9603 17.5 16.5 17.5H1.50002C1.03979 17.5 0.666687 17.1269 0.666687 16.6667V3.33334C0.666687 2.87311 1.03979 2.50001 1.50002 2.50001H4.83335V0.833344H6.50002ZM15.6667 9.16668H2.33335V15.8333H15.6667V9.16668ZM8.16669 10.8333V14.1667H4.00002V10.8333H8.16669ZM4.83335 4.16668H2.33335V7.50001H15.6667V4.16668H13.1667V5.83334H11.5V4.16668H6.50002V5.83334H4.83335V4.16668Z" fill="black"/>
</svg>
