<svg width="18" height="18" viewBox="0 0 18 18" fill="none" xmlns="http://www.w3.org/2000/svg">
<path d="M17.4375 9C17.4381 8.35402 17.2798 7.71781 16.9764 7.14748C16.6731 6.57714 16.2341 6.09019 15.6982 5.72956C15.1622 5.36893 14.5458 5.1457 13.9032 5.07956C13.2606 5.01341 12.6116 5.10637 12.0135 5.35025C11.4153 5.59413 10.8863 5.98144 10.4731 6.47802C10.06 6.9746 9.77535 7.56521 9.64434 8.19776C9.51332 8.83032 9.53995 9.48539 9.72187 10.1052C9.90378 10.7251 10.2354 11.2906 10.6875 11.752V15.75C10.6874 15.8459 10.7119 15.9403 10.7586 16.0241C10.8053 16.1079 10.8726 16.1784 10.9542 16.2288C11.0358 16.2793 11.1289 16.308 11.2248 16.3123C11.3206 16.3166 11.4159 16.2964 11.5017 16.2534L13.5 15.2536L15.4983 16.2534C15.5841 16.2964 15.6794 16.3166 15.7753 16.3123C15.8711 16.308 15.9642 16.2793 16.0458 16.2288C16.1274 16.1784 16.1947 16.1079 16.2414 16.0241C16.2881 15.9403 16.3126 15.8459 16.3125 15.75V11.752C17.0339 11.0178 17.438 10.0294 17.4375 9ZM13.5 6.1875C14.0563 6.1875 14.6 6.35245 15.0625 6.66149C15.5251 6.97053 15.8855 7.40979 16.0984 7.9237C16.3113 8.43762 16.367 9.00312 16.2585 9.54869C16.1499 10.0943 15.8821 10.5954 15.4887 10.9887C15.0954 11.3821 14.5943 11.6499 14.0487 11.7585C13.5031 11.867 12.9376 11.8113 12.4237 11.5984C11.9098 11.3855 11.4705 11.0251 11.1615 10.5625C10.8525 10.1 10.6875 9.55626 10.6875 9C10.6875 8.25408 10.9838 7.53871 11.5113 7.01126C12.0387 6.48382 12.7541 6.1875 13.5 6.1875ZM13.7517 14.1216C13.6736 14.0825 13.5874 14.0621 13.5 14.0621C13.4126 14.0621 13.3264 14.0825 13.2483 14.1216L11.8125 14.8402V12.5571C12.3398 12.8076 12.9162 12.9375 13.5 12.9375C14.0838 12.9375 14.6602 12.8076 15.1875 12.5571V14.8402L13.7517 14.1216ZM9.5625 13.5C9.5625 13.6492 9.50324 13.7923 9.39775 13.8977C9.29226 14.0032 9.14919 14.0625 9 14.0625H2.8125C2.51413 14.0625 2.22798 13.944 2.017 13.733C1.80603 13.522 1.6875 13.2359 1.6875 12.9375V3.9375C1.6875 3.63913 1.80603 3.35298 2.017 3.142C2.22798 2.93103 2.51413 2.8125 2.8125 2.8125H15.1875C15.4859 2.8125 15.772 2.93103 15.983 3.142C16.194 3.35298 16.3125 3.63913 16.3125 3.9375C16.3125 4.08668 16.2532 4.22976 16.1477 4.33525C16.0423 4.44074 15.8992 4.5 15.75 4.5C15.6008 4.5 15.4577 4.44074 15.3523 4.33525C15.2468 4.22976 15.1875 4.08668 15.1875 3.9375H2.8125V12.9375H9C9.14919 12.9375 9.29226 12.9968 9.39775 13.1023C9.50324 13.2077 9.5625 13.3508 9.5625 13.5ZM8.4375 9.5625C8.4375 9.71168 8.37824 9.85476 8.27275 9.96025C8.16726 10.0657 8.02419 10.125 7.875 10.125H5.0625C4.91332 10.125 4.77024 10.0657 4.66475 9.96025C4.55926 9.85476 4.5 9.71168 4.5 9.5625C4.5 9.41332 4.55926 9.27024 4.66475 9.16475C4.77024 9.05926 4.91332 9 5.0625 9H7.875C8.02419 9 8.16726 9.05926 8.27275 9.16475C8.37824 9.27024 8.4375 9.41332 8.4375 9.5625ZM8.4375 7.3125C8.4375 7.46168 8.37824 7.60476 8.27275 7.71025C8.16726 7.81574 8.02419 7.875 7.875 7.875H5.0625C4.91332 7.875 4.77024 7.81574 4.66475 7.71025C4.55926 7.60476 4.5 7.46168 4.5 7.3125C4.5 7.16332 4.55926 7.02024 4.66475 6.91475C4.77024 6.80926 4.91332 6.75 5.0625 6.75H7.875C8.02419 6.75 8.16726 6.80926 8.27275 6.91475C8.37824 7.02024 8.4375 7.16332 8.4375 7.3125Z" fill="black"/>
</svg>
