<svg width="11" height="18" viewBox="0 0 11 18" fill="none" xmlns="http://www.w3.org/2000/svg">
<path d="M9.79594 15.7041C10.0073 15.9154 10.126 16.2021 10.126 16.501C10.126 16.7999 10.0073 17.0865 9.79594 17.2978C9.58459 17.5092 9.29795 17.6279 8.99906 17.6279C8.70018 17.6279 8.41353 17.5092 8.20219 17.2978L0.702186 9.79785C0.597306 9.69333 0.51409 9.56914 0.457309 9.4324C0.400528 9.29565 0.3713 9.14904 0.3713 9.00097C0.3713 8.85291 0.400528 8.7063 0.457309 8.56955C0.51409 8.43281 0.597306 8.30862 0.702186 8.2041L8.20219 0.7041C8.41353 0.492755 8.70018 0.374023 8.99906 0.374023C9.29795 0.374023 9.58459 0.492756 9.79594 0.7041C10.0073 0.915444 10.126 1.20209 10.126 1.50097C10.126 1.79986 10.0073 2.08651 9.79594 2.29785L3.09375 9.00004L9.79594 15.7041Z" fill="black"/>
</svg>
