<svg width="33" height="32" viewBox="0 0 33 32" fill="none" xmlns="http://www.w3.org/2000/svg">
<path d="M16.6667 3C14.0955 3 11.5821 3.76244 9.44428 5.1909C7.30644 6.61935 5.6402 8.64968 4.65626 11.0251C3.67232 13.4006 3.41488 16.0144 3.91648 18.5362C4.41809 21.0579 5.65622 23.3743 7.4743 25.1924C9.29239 27.0105 11.6088 28.2486 14.1305 28.7502C16.6523 29.2518 19.2661 28.9944 21.6416 28.0104C24.017 27.0265 26.0473 25.3603 27.4758 23.2224C28.9043 21.0846 29.6667 18.5712 29.6667 16C29.6631 12.5533 28.2922 9.24882 25.8551 6.81163C23.4179 4.37445 20.1134 3.00364 16.6667 3ZM16.6667 27C14.4911 27 12.3644 26.3549 10.5554 25.1462C8.74648 23.9375 7.33658 22.2195 6.50402 20.2095C5.67145 18.1995 5.45362 15.9878 5.87805 13.854C6.30249 11.7202 7.35014 9.7602 8.88852 8.22183C10.4269 6.68345 12.3869 5.6358 14.5207 5.21136C16.6545 4.78692 18.8662 5.00476 20.8762 5.83733C22.8862 6.66989 24.6042 8.07979 25.8129 9.88873C27.0216 11.6977 27.6667 13.8244 27.6667 16C27.6634 18.9164 26.5034 21.7123 24.4412 23.7745C22.379 25.8367 19.5831 26.9967 16.6667 27ZM24.6667 16C24.6667 16.2652 24.5613 16.5196 24.3738 16.7071C24.1863 16.8946 23.9319 17 23.6667 17H16.6667C16.4015 17 16.1471 16.8946 15.9596 16.7071C15.772 16.5196 15.6667 16.2652 15.6667 16V9C15.6667 8.73478 15.772 8.48043 15.9596 8.29289C16.1471 8.10536 16.4015 8 16.6667 8C16.9319 8 17.1863 8.10536 17.3738 8.29289C17.5613 8.48043 17.6667 8.73478 17.6667 9V15H23.6667C23.9319 15 24.1863 15.1054 24.3738 15.2929C24.5613 15.4804 24.6667 15.7348 24.6667 16Z" fill="#F5F5F5"/>
</svg>
