<svg width="15" height="15" viewBox="0 0 15 15" fill="none" xmlns="http://www.w3.org/2000/svg">
<path d="M13.6354 10.1416L10.323 8.65728L10.3138 8.65306C10.1419 8.57951 9.95428 8.54999 9.76804 8.56718C9.5818 8.58437 9.40278 8.64772 9.24719 8.7515C9.22887 8.7636 9.21126 8.77675 9.19445 8.79087L7.48305 10.2499C6.39883 9.72322 5.27945 8.61228 4.75281 7.54212L6.2139 5.8047C6.22797 5.78712 6.24133 5.76955 6.25398 5.75056C6.35553 5.59538 6.41715 5.41751 6.43334 5.23276C6.44953 5.04802 6.4198 4.86213 6.3468 4.69165V4.68322L4.85828 1.36517C4.76177 1.14247 4.59582 0.956946 4.38521 0.836307C4.1746 0.715667 3.93061 0.666377 3.68969 0.695795C2.73693 0.821167 1.86239 1.28907 1.2294 2.01211C0.596419 2.73515 0.248276 3.66389 0.249999 4.62486C0.249999 10.2077 4.79219 14.7499 10.375 14.7499C11.336 14.7516 12.2647 14.4034 12.9877 13.7705C13.7108 13.1375 14.1787 12.2629 14.3041 11.3102C14.3335 11.0693 14.2843 10.8254 14.1638 10.6148C14.0433 10.4042 13.858 10.2382 13.6354 10.1416ZM10.375 13.6249C7.98885 13.6223 5.70118 12.6732 4.01392 10.9859C2.32665 9.29868 1.3776 7.01101 1.375 4.62486C1.37235 3.93825 1.61972 3.27415 2.07091 2.75659C2.52209 2.23903 3.14624 1.90339 3.8268 1.81236C3.82652 1.81516 3.82652 1.81799 3.8268 1.8208L5.30336 5.12548L3.85 6.86501C3.83525 6.88199 3.82185 6.90009 3.80992 6.91915C3.70411 7.08152 3.64204 7.26846 3.62972 7.46187C3.6174 7.65528 3.65525 7.84858 3.73961 8.02306C4.37664 9.32595 5.68937 10.6288 7.00633 11.2652C7.18208 11.3487 7.37651 11.3853 7.57062 11.3712C7.76472 11.3572 7.95186 11.293 8.11375 11.185C8.1318 11.1729 8.14917 11.1597 8.16578 11.1456L9.87508 9.68736L13.1798 11.1674C13.1798 11.1674 13.1854 11.1674 13.1875 11.1674C13.0976 11.8489 12.7624 12.4744 12.2448 12.9267C11.7271 13.379 11.0624 13.6272 10.375 13.6249Z" fill="black"/>
</svg>
