<svg width="14" height="14" viewBox="0 0 14 14" fill="none" xmlns="http://www.w3.org/2000/svg">
<path d="M9.03063 7.53063L6.53062 10.0306C6.38973 10.1715 6.19863 10.2507 5.99937 10.2507C5.80012 10.2507 5.60902 10.1715 5.46812 10.0306C5.32723 9.88973 5.24807 9.69863 5.24807 9.49938C5.24807 9.30012 5.32723 9.10902 5.46812 8.96813L6.6875 7.75H1.5C1.30109 7.75 1.11032 7.67098 0.96967 7.53033C0.829018 7.38968 0.75 7.19891 0.75 7C0.75 6.80109 0.829018 6.61032 0.96967 6.46967C1.11032 6.32902 1.30109 6.25 1.5 6.25H6.6875L5.46938 5.03062C5.39961 4.96086 5.34427 4.87804 5.30651 4.78689C5.26876 4.69573 5.24932 4.59804 5.24932 4.49937C5.24932 4.30012 5.32848 4.10902 5.46938 3.96812C5.61027 3.82723 5.80137 3.74807 6.00063 3.74807C6.19988 3.74807 6.39098 3.82723 6.53188 3.96812L9.03187 6.46812C9.10171 6.53788 9.15709 6.62074 9.19484 6.71195C9.23259 6.80316 9.25196 6.90092 9.25184 6.99963C9.25173 7.09835 9.23212 7.19606 9.19416 7.28718C9.1562 7.3783 9.10063 7.46103 9.03063 7.53063ZM12 0.75H8.5C8.30109 0.75 8.11032 0.829018 7.96967 0.96967C7.82902 1.11032 7.75 1.30109 7.75 1.5C7.75 1.69891 7.82902 1.88968 7.96967 2.03033C8.11032 2.17098 8.30109 2.25 8.5 2.25H11.75V11.75H8.5C8.30109 11.75 8.11032 11.829 7.96967 11.9697C7.82902 12.1103 7.75 12.3011 7.75 12.5C7.75 12.6989 7.82902 12.8897 7.96967 13.0303C8.11032 13.171 8.30109 13.25 8.5 13.25H12C12.3315 13.25 12.6495 13.1183 12.8839 12.8839C13.1183 12.6495 13.25 12.3315 13.25 12V2C13.25 1.66848 13.1183 1.35054 12.8839 1.11612C12.6495 0.881696 12.3315 0.75 12 0.75Z" fill="#10A9A5"/>
</svg>
