<svg width="14" height="15" viewBox="0 0 14 15" fill="none" xmlns="http://www.w3.org/2000/svg">
<path d="M3.66508 6.22656C3.69268 6.15788 3.73357 6.09532 3.7854 6.04248C3.83722 5.98963 3.89897 5.94753 3.9671 5.91859C4.03523 5.88966 4.1084 5.87445 4.18242 5.87385C4.25644 5.87324 4.32985 5.88726 4.39844 5.91508L6.4375 6.73141V4.75C6.4375 4.60082 6.49676 4.45774 6.60225 4.35225C6.70774 4.24676 6.85082 4.1875 7 4.1875C7.14918 4.1875 7.29226 4.24676 7.39775 4.35225C7.50324 4.45774 7.5625 4.60082 7.5625 4.75V6.73141L9.60156 5.91508C9.67017 5.88738 9.74356 5.87346 9.81754 5.87412C9.89153 5.87478 9.96465 5.89001 10.0328 5.91894C10.1009 5.94786 10.1626 5.98991 10.2144 6.0427C10.2663 6.09548 10.3072 6.15796 10.3349 6.22656C10.3626 6.29517 10.3765 6.36856 10.3759 6.44254C10.3752 6.51653 10.36 6.58965 10.3311 6.65775C10.3021 6.72585 10.2601 6.78759 10.2073 6.83943C10.1545 6.89128 10.092 6.93222 10.0234 6.95992L7.89227 7.81211L9.1375 9.475C9.22701 9.59435 9.26544 9.74436 9.24435 9.89205C9.22325 10.0397 9.14435 10.173 9.025 10.2625C8.90565 10.352 8.75564 10.3904 8.60795 10.3693C8.46027 10.3482 8.32701 10.2693 8.2375 10.15L7 8.49977L5.7625 10.15C5.71818 10.2091 5.66265 10.2589 5.59909 10.2965C5.53553 10.3342 5.46518 10.3589 5.39205 10.3693C5.31892 10.3798 5.24446 10.3757 5.1729 10.3574C5.10134 10.3391 5.03409 10.3068 4.975 10.2625C4.9159 10.2182 4.86612 10.1627 4.82848 10.0991C4.79085 10.0355 4.7661 9.96518 4.75565 9.89205C4.74521 9.81892 4.74927 9.74446 4.7676 9.6729C4.78593 9.60134 4.81818 9.53409 4.8625 9.475L6.10984 7.81211L3.97656 6.95992C3.90788 6.93232 3.84532 6.89143 3.79248 6.8396C3.73963 6.78778 3.69753 6.72603 3.66859 6.6579C3.63966 6.58977 3.62445 6.5166 3.62385 6.44258C3.62324 6.36856 3.63725 6.29515 3.66508 6.22656ZM13.75 1.9375V6.06977C13.75 12.3712 8.41891 14.4609 7.35156 14.8159C7.12368 14.8939 6.87632 14.8939 6.64844 14.8159C5.57969 14.4644 0.25 12.3719 0.25 6.07047V1.9375C0.25 1.63913 0.368526 1.35298 0.579505 1.142C0.790483 0.931026 1.07663 0.8125 1.375 0.8125H12.625C12.9234 0.8125 13.2095 0.931026 13.4205 1.142C13.6315 1.35298 13.75 1.63913 13.75 1.9375ZM12.625 1.9375H1.375V6.07117C1.375 11.5907 6.04867 13.4315 7 13.7479C7.96047 13.4273 12.625 11.5851 12.625 6.07117V1.9375Z" fill="black"/>
</svg>
